<?xml version="1.0" encoding="UTF-8" standalone="no"?>
<!-- $Id: envelope.svg,v 1.2 2008/09/03 02:50:38 troy Exp $ -->
<svg
   xmlns:dc="http://purl.org/dc/elements/1.1/"
   xmlns:cc="http://creativecommons.org/ns#"
   xmlns:rdf="http://www.w3.org/1999/02/22-rdf-syntax-ns#"
   xmlns:svg="http://www.w3.org/2000/svg"
   xmlns="http://www.w3.org/2000/svg"
   xmlns:xlink="http://www.w3.org/1999/xlink"
   xmlns:sodipodi="http://sodipodi.sourceforge.net/DTD/sodipodi-0.dtd"
   xmlns:inkscape="http://www.inkscape.org/namespaces/inkscape"
   id="svg2"
   sodipodi:version="0.32"
   inkscape:version="0.46"
   width="489"
   height="630"
   version="1.0"
   sodipodi:docname="envelope.svg"
   inkscape:output_extension="org.inkscape.output.svg.inkscape">
  <metadata
     id="metadata7">
    <rdf:RDF>
      <cc:Work
         rdf:about="">
        <dc:format>image/svg+xml</dc:format>
        <dc:type
           rdf:resource="http://purl.org/dc/dcmitype/StillImage" />
      </cc:Work>
    </rdf:RDF>
  </metadata>
  <defs
     id="defs5">
    <linearGradient
       id="linearGradient3211">
      <stop
         style="stop-color:#fab200;stop-opacity:1;"
         offset="0"
         id="stop3213" />
      <stop
         id="stop3219"
         offset="1"
         style="stop-color:#ffe092;stop-opacity:1;" />
    </linearGradient>
    <linearGradient
       id="linearGradient3187">
      <stop
         style="stop-color:#e1e7ac;stop-opacity:1;"
         offset="0"
         id="stop3189" />
      <stop
         id="stop3195"
         offset="1"
         style="stop-color:#757e24;stop-opacity:1;" />
    </linearGradient>
    <linearGradient
       id="linearGradient3200">
      <stop
         id="stop3210"
         offset="0"
         style="stop-color:#a78239;stop-opacity:1;" />
      <stop
         id="stop3208"
         offset="1"
         style="stop-color:#c97741;stop-opacity:1;" />
    </linearGradient>
    <linearGradient
       id="linearGradient3190">
      <stop
         style="stop-color:#d2b556;stop-opacity:1;"
         offset="0"
         id="stop3192" />
      <stop
         id="stop3194"
         offset="1"
         style="stop-color:#878743;stop-opacity:1;" />
    </linearGradient>
    <linearGradient
       id="linearGradient3182">
      <stop
         id="stop3184"
         offset="0"
         style="stop-color:#646432;stop-opacity:1;" />
      <stop
         style="stop-color:#a5882c;stop-opacity:0.49803922;"
         offset="0.5"
         id="stop3186" />
      <stop
         id="stop3188"
         offset="1"
         style="stop-color:#a5882c;stop-opacity:0;" />
    </linearGradient>
    <linearGradient
       id="linearGradient3166">
      <stop
         style="stop-color:#646432;stop-opacity:1;"
         offset="0"
         id="stop3168" />
      <stop
         id="stop3180"
         offset="0.5"
         style="stop-color:#a5882c;stop-opacity:0.49803922;" />
      <stop
         style="stop-color:#a5882c;stop-opacity:0;"
         offset="1"
         id="stop3170" />
    </linearGradient>
    <inkscape:perspective
       sodipodi:type="inkscape:persp3d"
       inkscape:vp_x="0 : 526.18109 : 1"
       inkscape:vp_y="0 : 1000 : 0"
       inkscape:vp_z="744.09448 : 526.18109 : 1"
       inkscape:persp3d-origin="372.04724 : 350.78739 : 1"
       id="perspective9" />
    <linearGradient
       inkscape:collect="always"
       xlink:href="#linearGradient3211"
       id="linearGradient3245"
       gradientUnits="userSpaceOnUse"
       gradientTransform="translate(163.45404,-675.99192)"
       x1="-707.64984"
       y1="363.62499"
       x2="-138.98095"
       y2="363.62499" />
    <linearGradient
       inkscape:collect="always"
       xlink:href="#linearGradient3187"
       id="linearGradient3263"
       gradientUnits="userSpaceOnUse"
       gradientTransform="matrix(0.649708,0.7601839,-0.7601839,0.649708,77.890498,299.2386)"
       x1="-449.84338"
       y1="280.68925"
       x2="-127.17872"
       y2="280.68925" />
    <linearGradient
       inkscape:collect="always"
       xlink:href="#linearGradient3187"
       id="linearGradient3265"
       gradientUnits="userSpaceOnUse"
       gradientTransform="matrix(0.649708,0.7601839,-0.7601839,0.649708,47.721838,377.12802)"
       x1="-449.84338"
       y1="280.68925"
       x2="-127.17872"
       y2="280.68925" />
    <linearGradient
       inkscape:collect="always"
       xlink:href="#linearGradient3211"
       id="linearGradient3267"
       gradientUnits="userSpaceOnUse"
       x1="-707.64984"
       y1="363.62499"
       x2="-138.98095"
       y2="363.62499" />
    <linearGradient
       inkscape:collect="always"
       xlink:href="#linearGradient3200"
       id="linearGradient3285"
       gradientUnits="userSpaceOnUse"
       gradientTransform="matrix(0.6539141,0.7565688,-0.7565688,0.6539141,311.08736,384.93494)"
       x1="96.5"
       y1="119.75"
       x2="346"
       y2="119.75" />
    <linearGradient
       inkscape:collect="always"
       xlink:href="#linearGradient3190"
       id="linearGradient3287"
       gradientUnits="userSpaceOnUse"
       gradientTransform="matrix(0.6539141,0.7565688,-0.7565688,0.6539141,312.49784,385.03759)"
       x1="161.5"
       y1="135.5"
       x2="477.5"
       y2="135.5" />
  </defs>
  <sodipodi:namedview
     inkscape:window-height="906"
     inkscape:window-width="1166"
     inkscape:pageshadow="2"
     inkscape:pageopacity="0.0"
     guidetolerance="10.0"
     gridtolerance="10.0"
     objecttolerance="10.0"
     borderopacity="1.0"
     bordercolor="#666666"
     pagecolor="#ffffff"
     id="base"
     showgrid="false"
     inkscape:zoom="0.35355339"
     inkscape:cx="150.78332"
     inkscape:cy="288.79667"
     inkscape:window-x="1303"
     inkscape:window-y="17"
     inkscape:current-layer="svg2" />
  <image
     xlink:href="envelope.jpg"
     sodipodi:absref="envelope.jpg"
     width="489"
     height="630"
     id="image11"
     x="627.22253"
     y="-72.734955"
     style="opacity:1;fill:none;fill-opacity:1"
     transform="matrix(0.6505057,0.7595014,-0.7595014,0.6505057,0,0)" />
  <g
     id="g3269"
     transform="translate(246.07316,-698.6215)"
     inkscape:export-xdpi="4.3400002"
     inkscape:export-ydpi="4.3400002">
    <path
       inkscape:export-ydpi="2.3566065"
       inkscape:export-xdpi="2.3566065"
       inkscape:export-filename="/home/troy/java/dublan/rmi-envelope/src/us/lump/envelope/client/ui/images/path3232.png"
       sodipodi:nodetypes="ccccc"
       id="path2384"
       d="M 185.36243,523.17474 L -138.66306,799.79217 L 137.33566,1064.6988 L 410.50504,816.39986 L 185.36243,523.17474 z"
       style="opacity:1;fill:#895c00;fill-opacity:1;fill-rule:evenodd;stroke:#000000;stroke-width:1;stroke-linecap:butt;stroke-linejoin:miter;stroke-miterlimit:4;stroke-dasharray:none;stroke-opacity:1" />
    <path
       inkscape:export-ydpi="2.3566065"
       inkscape:export-xdpi="2.3566065"
       inkscape:export-filename="/home/troy/java/dublan/rmi-envelope/src/us/lump/envelope/client/ui/images/path3232.png"
       sodipodi:nodetypes="czzzzcc"
       id="path3162"
       d="M 185.02567,523.28418 C 185.02567,523.28418 260.75114,483.76653 267.45051,480.57459 C 274.43716,477.24577 287.74868,475.48462 296.34525,484.78 C 304.71822,493.83361 461.09467,713.97684 469.02644,724.88039 C 476.77852,735.53693 474.23007,746.6879 466.7909,754.79451 C 459.59605,762.63487 410.36349,816.73996 410.36349,816.73996 L 185.02567,523.28418 z"
       style="opacity:1;fill:#ffd062;fill-opacity:1;fill-rule:evenodd;stroke:#000000;stroke-width:1;stroke-linecap:butt;stroke-linejoin:miter;stroke-miterlimit:4;stroke-dasharray:none;stroke-opacity:1" />
    <path
       inkscape:export-ydpi="2.3566065"
       inkscape:export-xdpi="2.3566065"
       inkscape:export-filename="/home/troy/java/dublan/rmi-envelope/src/us/lump/envelope/client/ui/images/path3232.png"
       sodipodi:nodetypes="ccccc"
       id="path3198"
       d="M 421.12921,543.60138 C 318.44326,556.78385 265.35663,569.55889 213.74616,597.27886 C 238.04513,634.06839 256.27659,649.938 256.27659,649.938 C 256.27659,649.938 328.05753,627.2729 478.55562,673.49095 C 475.82033,665.69364 446.35052,591.4249 421.12921,543.60138 z"
       style="opacity:1;fill:url(#linearGradient3285);fill-opacity:1;fill-rule:evenodd;stroke:#000000;stroke-width:1;stroke-linecap:butt;stroke-linejoin:miter;stroke-miterlimit:4;stroke-dasharray:none;stroke-opacity:1" />
    <path
       inkscape:export-ydpi="2.3566065"
       inkscape:export-xdpi="2.3566065"
       inkscape:export-filename="/home/troy/java/dublan/rmi-envelope/src/us/lump/envelope/client/ui/images/path3232.png"
       sodipodi:nodetypes="ccccccc"
       id="path3220"
       d="M 414.27159,557.45907 C 268.59864,575.87647 242.26691,597.20307 221.69579,604.94721 C 223.93224,612.02737 231.97304,619.32295 234.12965,621.62688 C 266.73444,600.68032 298.9831,596.11938 409.27306,574.99695 C 423.83626,605.22092 450.87335,665.8926 450.87335,665.8926 L 463.69576,669.50967 C 459.93351,658.60553 419.97093,569.0964 414.27159,557.45907 z"
       style="opacity:1;fill:#000000;fill-opacity:1;fill-rule:evenodd;stroke:#000000;stroke-width:1;stroke-linecap:butt;stroke-linejoin:miter;stroke-miterlimit:4;stroke-dasharray:none;stroke-opacity:1" />
    <path
       inkscape:export-ydpi="2.3566065"
       inkscape:export-xdpi="2.3566065"
       inkscape:export-filename="/home/troy/java/dublan/rmi-envelope/src/us/lump/envelope/client/ui/images/path3232.png"
       sodipodi:nodetypes="ccccc"
       id="path3164"
       d="M 377.5763,805.94352 C 389.30342,799.72217 469.93158,813.30813 524.5478,832.23757 C 522.39514,788.54477 507.2039,711.37558 499.71851,676.58248 C 363.91717,641.66727 336.20359,631.35564 251.53819,647.88531 C 271.09455,674.12715 355.18893,778.42157 377.5763,805.94352 z"
       style="opacity:1;fill:url(#linearGradient3287);fill-opacity:1;fill-rule:evenodd;stroke:#000000;stroke-width:1;stroke-linecap:butt;stroke-linejoin:miter;stroke-miterlimit:4;stroke-dasharray:none;stroke-opacity:1" />
    <path
       inkscape:export-ydpi="2.3566065"
       inkscape:export-xdpi="2.3566065"
       inkscape:export-filename="/home/troy/java/dublan/rmi-envelope/src/us/lump/envelope/client/ui/images/path3232.png"
       sodipodi:nodetypes="ccccccccccc"
       id="path3228"
       d="M 259.87831,654.90724 C 285.92673,650.39123 329.00445,632.67386 474.90927,676.0717 C 481.15147,681.53059 487.75326,688.94833 490.617,691.00127 L 511.34207,816.08562 C 511.36713,819.62201 507.37193,821.04472 503.26772,820.26054 C 421.6111,794.64408 385.51789,797.7044 370.79604,797.83556 C 367.9431,793.31599 365.29194,788.39128 360.73241,784.57007 C 391.13972,779.03249 434.66453,788.49205 504.47885,807.06363 C 503.24672,782.36396 490.97159,722.82523 486.727,696.2327 C 364.45361,662.30337 310.26874,662.9382 273.76335,674.21606 C 268.29048,668.95286 263.71444,662.09956 259.87831,654.90724 z"
       style="opacity:1;fill:#000000;fill-opacity:1;fill-rule:evenodd;stroke:#000000;stroke-width:1;stroke-linecap:butt;stroke-linejoin:miter;stroke-miterlimit:4;stroke-dasharray:none;stroke-opacity:1" />
    <path
       inkscape:export-ydpi="2.3566065"
       inkscape:export-xdpi="2.3566065"
       inkscape:export-filename="/home/troy/java/dublan/rmi-envelope/src/us/lump/envelope/client/ui/images/path3232.png"
       sodipodi:nodetypes="ccccc"
       id="path3156"
       d="M 181.38736,549.2986 L 386.47328,812.78198 L 137.33564,1064.6988 L -138.53841,799.68443 L 181.38736,549.2986 z"
       style="opacity:1;fill:#ffbc20;fill-opacity:1;fill-rule:evenodd;stroke:#000000;stroke-width:1;stroke-linecap:butt;stroke-linejoin:miter;stroke-miterlimit:4;stroke-dasharray:none;stroke-opacity:1" />
    <path
       inkscape:export-ydpi="2.3566065"
       inkscape:export-xdpi="2.3566065"
       inkscape:export-filename="/home/troy/java/dublan/rmi-envelope/src/us/lump/envelope/client/ui/images/path3232.png"
       sodipodi:nodetypes="ccccc"
       id="path3158"
       d="M 185.0328,523.28319 C 185.0328,523.28319 209.57059,566.1109 210.74044,595.35292 C 210.22175,596.43928 -57.36088,829.2189 -59.487573,828.91519 C -83.514217,833.30959 -138.53841,799.68443 -138.53841,799.68443 L 185.0328,523.28319 z"
       style="opacity:1;fill:#ffc945;fill-opacity:1;fill-rule:evenodd;stroke:#000000;stroke-width:1;stroke-linecap:butt;stroke-linejoin:miter;stroke-miterlimit:4;stroke-dasharray:none;stroke-opacity:1" />
    <path
       inkscape:export-ydpi="2.3566065"
       inkscape:export-xdpi="2.3566065"
       inkscape:export-filename="/home/troy/java/dublan/rmi-envelope/src/us/lump/envelope/client/ui/images/path3232.png"
       sodipodi:nodetypes="ccccc"
       id="path3160"
       d="M 410.25576,816.61531 C 410.25576,816.61531 379.08272,789.90003 359.07934,791.16531 C 358.79846,791.0627 116.91553,1001.8163 113.64481,1005.0402 C 110.88012,1026.9895 137.58493,1064.4834 137.58493,1064.4834 L 410.25576,816.61531 z"
       style="opacity:1;fill:#ffc22f;fill-opacity:1;fill-rule:evenodd;stroke:#000000;stroke-width:1;stroke-linecap:butt;stroke-linejoin:miter;stroke-miterlimit:4;stroke-dasharray:none;stroke-opacity:1" />
    <path
       inkscape:export-ydpi="2.3566065"
       inkscape:export-xdpi="2.3566065"
       inkscape:export-filename="/home/troy/java/dublan/rmi-envelope/src/us/lump/envelope/client/ui/images/path3232.png"
       sodipodi:nodetypes="ccccc"
       id="path3222"
       d="M 372.69699,566.13141 C 364.58758,569.87955 353.14057,569.45401 346.57547,570.6997 C 351.27332,574.27168 350.8267,578.2156 351.04214,578.73491 C 355.03629,572.35339 362.74399,575.71838 371.16435,572.5779 C 372.62765,571.74003 374.25534,568.37589 372.69699,566.13141 z"
       style="opacity:1;fill:#8c7028;fill-opacity:1;fill-rule:evenodd;stroke:#000000;stroke-width:1;stroke-linecap:butt;stroke-linejoin:miter;stroke-miterlimit:4;stroke-dasharray:none;stroke-opacity:1" />
    <path
       inkscape:export-ydpi="2.3566065"
       inkscape:export-xdpi="2.3566065"
       inkscape:export-filename="/home/troy/java/dublan/rmi-envelope/src/us/lump/envelope/client/ui/images/path3232.png"
       sodipodi:nodetypes="czzzzzcczc"
       id="path3224"
       d="M 354.71424,578.20457 C 364.40343,574.36062 379.54467,574.3019 380.81626,578.77493 C 382.04387,583.09324 369.58403,584.97884 364.76643,586.11966 C 359.94882,587.26048 350.55529,585.9611 350.72963,583.43759 C 350.91259,580.78937 355.45906,579.50107 357.86775,579.3203 C 360.23985,579.14228 364.17163,580.07287 364.94451,581.62994 C 365.67445,583.10051 364.39568,584.04005 363.54421,584.23166 C 362.69274,584.42327 360.59678,583.91737 360.09145,583.47014 C 362.3439,587.90856 368.85511,584.40935 368.28003,580.85355 C 367.69644,577.24507 359.13655,578.1127 354.71424,578.20457 z"
       style="opacity:1;fill:#8c7028;fill-opacity:1;fill-rule:evenodd;stroke:#000000;stroke-width:1;stroke-linecap:butt;stroke-linejoin:miter;stroke-miterlimit:4;stroke-dasharray:none;stroke-opacity:1" />
    <path
       inkscape:export-ydpi="2.3566065"
       inkscape:export-xdpi="2.3566065"
       inkscape:export-filename="/home/troy/java/dublan/rmi-envelope/src/us/lump/envelope/client/ui/images/path3232.png"
       sodipodi:nodetypes="czccczz"
       id="path3226"
       d="M 390.66951,562.65773 C 396.2021,562.22223 408.98912,565.78278 410.1335,572.47147 C 411.30349,579.3099 400.93477,581.85632 397.69769,581.46751 C 400.15306,574.79601 395.1471,566.59109 391.0378,563.62451 C 388.16003,567.49442 392.49594,576.77869 397.00747,581.47995 C 390.97731,583.23603 379.57048,579.67385 378.20077,572.96735 C 376.82406,566.22667 385.13692,563.09323 390.66951,562.65773 z"
       style="opacity:1;fill:#8c7028;fill-opacity:1;fill-rule:evenodd;stroke:#000000;stroke-width:1;stroke-linecap:butt;stroke-linejoin:miter;stroke-miterlimit:4;stroke-dasharray:none;stroke-opacity:1" />
    <path
       inkscape:export-ydpi="2.3566065"
       inkscape:export-xdpi="2.3566065"
       inkscape:export-filename="/home/troy/java/dublan/rmi-envelope/src/us/lump/envelope/client/ui/images/path3232.png"
       sodipodi:nodetypes="cccczczczcccc"
       id="path3230"
       d="M 444.32427,671.17725 C 446.56207,670.77682 450.85981,671.28799 450.7691,673.95048 C 448.63698,678.25323 439.41384,674.27044 440.03912,670.99832 C 441.09173,666.46188 460.47157,671.65676 463.14194,677.46533 C 462.8207,681.64516 456.08476,680.04356 452.78596,679.72477 C 449.39602,679.39718 448.4006,679.3316 446.4067,679.7036 C 451.20717,680.48148 451.42872,680.72871 453.94551,681.44868 C 456.45482,682.16651 459.7004,684.47769 461.9548,682.20883 C 463.20004,683.45573 464.01775,687.06205 461.61546,688.69786 C 459.11051,690.4036 441.29246,677.73629 445.07129,684.65787 C 443.97059,684.3212 440.72601,684.21311 440.80635,681.15708 C 443.1376,674.7464 452.11791,679.37662 453.18208,675.49974 C 452.97834,672.90883 446.39831,669.23552 444.32427,671.17725 z"
       style="opacity:1;fill:#a5882c;fill-opacity:1;fill-rule:evenodd;stroke:#000000;stroke-width:1;stroke-linecap:butt;stroke-linejoin:miter;stroke-miterlimit:4;stroke-dasharray:none;stroke-opacity:1" />
    <path
       inkscape:export-ydpi="2.3566065"
       inkscape:export-xdpi="2.3566065"
       sodipodi:nodetypes="czccczz"
       id="path3232"
       d="M 476.03771,676.41904 C 481.78177,677.94861 490.61059,685.4156 490.1753,690.01036 C 489.72334,694.78106 483.57657,695.33058 478.50748,694.54257 C 480.26711,690.1246 479.26495,682.92005 475.92031,677.97083 C 474.12607,681.5651 475.12491,690.42926 477.12485,694.32736 C 469.95367,692.27828 463.33851,685.11486 463.57564,681.7663 C 463.79997,678.5984 470.15722,674.85313 476.03771,676.41904 z"
       style="opacity:1;fill:#a5882c;fill-opacity:1;fill-rule:evenodd;stroke:#000000;stroke-width:1;stroke-linecap:butt;stroke-linejoin:miter;stroke-miterlimit:4;stroke-dasharray:none;stroke-opacity:1" />
  </g>
  <g
     id="g3239"
     transform="translate(73.539113,178.19091)">
    <path
       inkscape:export-ydpi="2.7268269"
       inkscape:export-xdpi="2.7268269"
       inkscape:export-filename="/home/troy/java/dublan/rmi-envelope/src/us/lump/envelope/client/ui/images/path3201.png"
       sodipodi:nodetypes="cccccccc"
       id="path2411"
       d="M -374.23091,97.781283 L -272.11857,23.531223 L -56.350745,278.16477 L -158.95038,371.43489 L -292.22467,408.13587 L -367.35263,330.02834 L -432.63019,228.61906 L -374.23091,97.781283 z"
       style="fill:#ffbc20;fill-opacity:1;fill-rule:evenodd;stroke:#000000;stroke-width:20;stroke-linecap:butt;stroke-linejoin:round;stroke-miterlimit:4;stroke-dasharray:none;stroke-opacity:1" />
    <path
       inkscape:export-ydpi="2.7268269"
       inkscape:export-xdpi="2.7268269"
       inkscape:export-filename="/home/troy/java/dublan/rmi-envelope/src/us/lump/envelope/client/ui/images/path3201.png"
       sodipodi:nodetypes="ccccc"
       id="path3185"
       d="M -612.60087,310.81123 C -463.78037,182.37802 -304.47148,82.898115 -150.85965,76.164611 L -66.576882,242.25619 C -209.87556,256.33053 -331.07387,327.83228 -478.74619,458.71972 L -612.60087,310.81123 z"
       style="fill:url(#linearGradient3263);fill-opacity:1;fill-rule:evenodd;stroke:#000000;stroke-width:20;stroke-linecap:butt;stroke-linejoin:miter;stroke-miterlimit:4;stroke-dasharray:none;stroke-opacity:1" />
    <path
       inkscape:export-ydpi="2.7268269"
       inkscape:export-xdpi="2.7268269"
       inkscape:export-filename="/home/troy/java/dublan/rmi-envelope/src/us/lump/envelope/client/ui/images/path3201.png"
       sodipodi:nodetypes="ccccc"
       id="path3197"
       d="M -642.76953,388.70065 C -493.94903,260.26744 -334.64014,160.78752 -181.02831,154.05403 L -96.745548,320.14561 C -240.04422,334.21994 -361.24253,405.7217 -508.91484,536.60914 L -642.76953,388.70065 z"
       style="fill:url(#linearGradient3265);fill-opacity:1;fill-rule:evenodd;stroke:#000000;stroke-width:20;stroke-linecap:butt;stroke-linejoin:miter;stroke-miterlimit:4;stroke-dasharray:none;stroke-opacity:1" />
    <path
       inkscape:export-ydpi="2.7268269"
       inkscape:export-xdpi="2.7268269"
       inkscape:export-filename="/home/troy/java/dublan/rmi-envelope/src/us/lump/envelope/client/ui/images/path3201.png"
       sodipodi:nodetypes="ccccccc"
       id="path3183"
       d="M -378.6688,90.41208 L -697.64984,359.31557 L -458.5989,636.8379 L -148.98095,372.21607 L -240.84209,357.24428 L -373.45618,199.90388 L -378.6688,90.41208 z"
       style="fill:url(#linearGradient3267);fill-opacity:1;fill-rule:evenodd;stroke:#000000;stroke-width:20;stroke-linecap:butt;stroke-linejoin:round;stroke-miterlimit:4;stroke-dasharray:none;stroke-opacity:1" />
  </g>
  <g
     id="g3235"
     transform="translate(14.142132,192.33304)">
    <path
       inkscape:export-ydpi="2.7268269"
       inkscape:export-xdpi="2.7268269"
       inkscape:export-filename="/home/troy/java/dublan/rmi-envelope/src/us/lump/envelope/client/ui/images/path3201.png"
       sodipodi:nodetypes="cccccccc"
       id="path3221"
       d="M -210.77687,-578.21064 L -108.66453,-652.4607 L 107.1033,-397.82715 L 4.5036645,-304.55703 L -128.77063,-267.85605 L -203.89859,-345.96358 L -269.17615,-447.37286 L -210.77687,-578.21064 z"
       style="fill:#ffbc20;fill-opacity:1;fill-rule:evenodd;stroke:#000000;stroke-width:20;stroke-linecap:butt;stroke-linejoin:round;stroke-miterlimit:4;stroke-dasharray:none;stroke-opacity:1" />
    <path
       inkscape:export-ydpi="2.7268269"
       inkscape:export-xdpi="2.7268269"
       inkscape:export-filename="/home/troy/java/dublan/rmi-envelope/src/us/lump/envelope/client/ui/images/path3201.png"
       sodipodi:nodetypes="ccccccc"
       id="path3227"
       d="M -215.21476,-585.57984 L -534.1958,-316.67635 L -295.14486,-39.15402 L 14.473095,-303.77585 L -77.388045,-318.74764 L -210.00214,-476.08804 L -215.21476,-585.57984 z"
       style="fill:url(#linearGradient3245);fill-opacity:1;fill-rule:evenodd;stroke:#000000;stroke-width:20;stroke-linecap:butt;stroke-linejoin:round;stroke-miterlimit:4;stroke-dasharray:none;stroke-opacity:1" />
  </g>
</svg>
